<svg xmlns="http://www.w3.org/2000/svg" xmlns:xlink="http://www.w3.org/1999/xlink" viewBox="0 0 1136.1 312"><defs><style>.a{fill:#333;}.b{fill:url(#a);}.c{fill:#fff;}</style><linearGradient id="a" x1="16.61" y1="18.61" x2="295.39" y2="297.39" gradientTransform="matrix(1, 0, 0, -1, 0, 314)" gradientUnits="userSpaceOnUse"><stop offset="0" stop-color="#6068c9"/><stop offset="1" stop-color="#00c8ea"/></linearGradient></defs><title>logo</title><rect class="a" x="488.6" y="127.1" width="25.3" height="117"/><path class="a" d="M515.6,98.1a14.4,14.4,0,1,1-14.4-14.4A14.4,14.4,0,0,1,515.6,98.1Z"/><path class="a" d="M615.9,206.5a32.88,32.88,0,1,1-.8-42.2l21.2-14.1a58.27,58.27,0,1,0,.8,70.4Z"/><rect class="a" x="890.3" y="127.7" width="25.3" height="117"/><path class="a" d="M917.4,98.7A14.4,14.4,0,1,1,903,84.3,14.4,14.4,0,0,1,917.4,98.7Z"/><path class="a" d="M852.5,206.5a32.88,32.88,0,1,1-.8-42.2l21.2-14.1a58.27,58.27,0,1,0,.8,70.4Z"/><rect class="a" x="367.4" y="69" width="25.3" height="175.7"/><rect class="a" x="656.3" y="69" width="25.3" height="175.7"/><path class="a" d="M989.9,219.3c-15.5,0-22.4-5.9-22.4-19.2V153h39.9V127.7H967.5V69H942.1V200.1c0,21.5,12.5,44.6,47.8,44.6,8.4,0,16.9-1.9,23.6-3.8V214.1C1009,215.8,998.8,219.3,989.9,219.3Z"/><path class="a" d="M1079.4,203.4l-29.5-75.7h-27.1l43,110.3a60.71,60.71,0,0,1-45,36l4.6,24.9a86.1,86.1,0,0,0,64.8-53.5l45.9-117.8h-27.2Z"/><polygon class="a" points="429.6 185.5 470.6 127.7 439.6 127.7 398.7 185.5 440.6 244.7 471.6 244.7 429.6 185.5"/><polygon class="a" points="718.6 185.5 759.5 127.7 728.6 127.7 687.6 185.5 729.6 244.7 760.6 244.7 718.6 185.5"/><path class="b" d="M255.3,312H56.7A56.72,56.72,0,0,1,0,255.3V56.7A56.72,56.72,0,0,1,56.7,0H255.3A56.72,56.72,0,0,1,312,56.7V255.3A56.72,56.72,0,0,1,255.3,312Z"/><rect class="c" x="103.9" y="63" width="25.3" height="175.7"/><polygon class="c" points="166.2 179.5 207.1 121.7 176.1 121.7 135.2 179.5 177.2 238.7 208.1 238.7 166.2 179.5"/></svg>